# xmcd
#
# Track frame offsets:
#	150
#	18926
#	37149
#	53557
#	73639
#	87283
#	101212
#	120419
#	132530
#	144196
#
# Disc length: 2113 seconds
# Revision: 0
# Processed by: cddbd v1.5.2PL0 Copyright (c) Steve Scherf et al.
# Submitted via: dBpowerAMP V12.0
#
DISCID=86083f0a
DTITLE=Amy Francis - Balladacious
DYEAR=2011
DGENRE=Country
TTITLE0=Don't Touch Me
TTITLE1=I'm Still Not Over You
TTITLE2=Picture of Me Without You
TTITLE3=Ode to Billy Joe
TTITLE4=Apartment #9
TTITLE5=I'll Share My World With You
TTITLE6=When I Call Your Name
TTITLE7=Sweet Dreams
TTITLE8=Fool Number One
TTITLE9=Stranger Things Have Happened
EXTD=
EXTT0=
EXTT1=
EXTT2=
EXTT3=
EXTT4=
EXTT5=
EXTT6=
EXTT7=
EXTT8=
EXTT9=
PLAYORDER=
